<svg xmlns="http://www.w3.org/2000/svg" width="64" height="64" viewBox="0 0 250 250">
  <path d="m125.1 40.63v118.4c-7.91-6.05-21.36-3.97-30.36 5.22-9.61 9.84-9.94 23.67-1.69 29.85 9.19 6.88 25.26 1.38 33.01-10.32 3.05-4.47 4.42-8.6 4.42-12.5v-86.61c7.52 1.2 16.35 6.52 24.26 12.57 16.4 12.7 16.4 28.43 7.4 51.04-2.01 4.13 0.8 0.85 1.62-0.22 10.48-14.28 18.32-32.08 9.57-50.48-9.5-18.53-25.97-23.35-35.72-39.08-3.48-5.39-6.15-12.27-6.36-17.9h-6.15z" fill="#fff"/>
  <path d="m72.54 196.3c-6.67 0.82-9.34 7.49-8.59 10.84 0.99 5.46 4.96 7.19 8.08 7.19 5.98 0.34 9.53-4.41 9.67-8.24 0.21-5.98-4.68-10.07-9.16-9.79z" fill="#fff"/>
</svg>
